<svg id="Layer_1" data-name="Layer 1" xmlns="http://www.w3.org/2000/svg" viewBox="0 0 48.04 25.94"><title>bike-black</title><polygon points="18.73 11.05 18.73 9.04 10.81 9.04 2.88 7.21 2.88 9.04 10.81 11.05 18.73 11.05"/><path d="M24.7,23.31a7,7,0,1,0,7,7A7,7,0,0,0,24.7,23.31Zm0,12a5,5,0,1,1,5-5A5,5,0,0,1,24.7,35.32Z" transform="translate(-17.73 -11.3)"/><path d="M58.81,23.31a7,7,0,0,0-1.43.15l-3.49-9.6a.48.48,0,0,0-.62-.29l-.11,0L51.87,11.3H48v1h3.31l.93,1.69a.48.48,0,0,0-.17.56l3.49,9.6a7,7,0,1,0,3.24-.8Zm0,12a5,5,0,0,1-2.58-9.38l1.26,3.46a.48.48,0,0,0,.62.29l.89-.33a.48.48,0,0,0,.29-.62L58,25.29a5,5,0,1,1,.77,10Z" transform="translate(-17.73 -11.3)"/><path d="M48.5,23.31h-12v2H49.06a.29.29,0,0,1,.29.44L47.85,29.3A3.17,3.17,0,0,1,45,31.38H37.54a6.84,6.84,0,0,1-3.94-1.73l-1,1.73a7.48,7.48,0,0,0,4.91,2h8a4.79,4.79,0,0,0,4-2.52l1.59-4.55S52.53,23.31,48.5,23.31Z" transform="translate(-17.73 -11.3)"/><path d="M48.07,14.18c-7.77,0-10.16,7.54-10.16,7.54l2.39.14S42.45,16,48.07,16c3.74,0,.9,5.84-.52,5.84h2.57C51.29,21.87,54.2,14.39,48.07,14.18Z" transform="translate(-17.73 -11.3)"/></svg>