<svg id="Layer_1" data-name="Layer 1" xmlns="http://www.w3.org/2000/svg" viewBox="0 0 81.22 32.72"><defs><style>.cls-1{fill:none;stroke:#000;stroke-miterlimit:10;stroke-width:1.92px;}</style></defs><title>car-black</title><line class="cls-1" x1="57.54" y1="27.19" x2="18.67" y2="27.19"/><path class="cls-1" d="M7.64,34.5c-4.58-.12-5-3.44-5-3.44V27.75c-.08-2.15.58-2.81.58-2.81.83-1.08.5-4.14.5-4.14-.41-2.07.5-2.81.5-2.81l4.63-4.63c-1.9-3.15,3.81-2.48,3.81-2.48s3.56-2.48,20.2-2.48a45.17,45.17,0,0,1,8.78.87,48.31,48.31,0,0,1,19.44,8.56c8.52,2,14.11,3.69,14.11,3.69,4.33,1,6.31,5.94,6.31,5.94L82,32.22s-.33,1.82-3.23,2.32l-7,.21" transform="translate(-1.71 -7.42)"/><path class="cls-1" d="M51.09,19.89l-.43-4.46S46,13.31,35.21,12.23l.4,6.92Z" transform="translate(-1.71 -7.42)"/><path class="cls-1" d="M30.76,12.28,30,19.09,15.81,19l3.47-6A106.72,106.72,0,0,1,30.76,12.28Z" transform="translate(-1.71 -7.42)"/><circle class="cls-1" cx="63.88" cy="25.98" r="5.78"/><circle class="cls-1" cx="12.36" cy="25.98" r="5.78"/></svg>