<?xml version="1.0" encoding="utf-8"?>
<!-- Generator: Adobe Illustrator 21.0.0, SVG Export Plug-In . SVG Version: 6.00 Build 0)  -->
<svg version="1.1" xmlns="http://www.w3.org/2000/svg" xmlns:xlink="http://www.w3.org/1999/xlink" x="0px" y="0px"
	 viewBox="0 0 76 76" style="enable-background:new 0 0 76 76;" xml:space="preserve">
<style type="text/css">
	.st0{display:none;fill:#AFAFAF;stroke:#000000;stroke-width:1.2624;stroke-miterlimit:10;}
	.st1{display:none;}
	.st2{display:none;fill:#C9C9C9;}
	.st3{fill:#FFFFFF;}
	.st4{fill:none;stroke:#D3D3D3;stroke-width:0.5;stroke-miterlimit:10;}
	.st5{fill:#B684C1;}
	.st6{fill:#6F3F74;}
	.st7{display:none;fill:#FFFFFF;}
</style>
<g id="Layer_2">
	<rect x="-7.3" y="-5.6" class="st0" width="91.3" height="90"/>
	<g id="m3nG2z_1_" class="st1">
		
			<image style="display:inline;overflow:visible;" width="400" height="300" id="m3nG2z_2_" xlink:href="54BA08632FBB6317.png"  transform="matrix(0.3704 0 0 0.3704 -36.6667 -16.125)">
		</image>
	</g>
	<polygon class="st2" points="1.2,37.9 7.3,43.5 7.3,32.2 	"/>
	<polygon class="st2" points="74.8,37.9 68.8,43.5 68.8,32.2 	"/>
	<polygon class="st2" points="38.8,74.7 33.2,68.8 44.5,68.8 	"/>
	<polygon class="st2" points="38.8,1.3 44.5,7.3 33.2,7.3 	"/>
	<g>
		
			<image style="overflow:visible;opacity:0.15;" width="83" height="83" xlink:href="54BA08632FBB6315.png"  transform="matrix(1 0 0 1 -4 -2.805)">
		</image>
		<g>
			<circle class="st3" cx="37.8" cy="38.9" r="31.7"/>
			<circle class="st4" cx="37.8" cy="38.9" r="31.7"/>
		</g>
	</g>
	<g>
		<polygon class="st5" points="37.8,1.3 32.4,12.8 37.8,11.1 		"/>
		<polyline class="st6" points="37.8,11.1 37.8,1.3 43.2,12.8 		"/>
	</g>
</g>
<g id="Layer_1">
	<title>compass-pointer</title>
	<circle class="st7" cx="28.7" cy="31.5" r="34.7"/>
</g>
</svg>
