<?xml version="1.0" encoding="utf-8"?>
<!-- Generator: Adobe Illustrator 20.0.0, SVG Export Plug-In . SVG Version: 6.00 Build 0)  -->
<svg version="1.1" id="Layer_1" xmlns="http://www.w3.org/2000/svg" xmlns:xlink="http://www.w3.org/1999/xlink" x="0px" y="0px"
	 viewBox="0 0 90.7 99.6" style="enable-background:new 0 0 90.7 99.6;" xml:space="preserve">
<style type="text/css">
	.st0{fill:#FFFFFF;}
</style>
<g>
	<path class="st0" d="M81.6,65.5c-4.2-2.4-9.2-3.1-13.9-1.8c-3.3,0.9-6.1,2.6-8.4,5L35.7,55.1c0.5-1.7,0.8-3.5,0.8-5.4
		c0-1.8-0.3-3.6-0.8-5.3l23.4-13.5c1.2,1.3,2.6,2.4,4.1,3.3c4.2,2.4,9.2,3.1,13.9,1.8c4.7-1.3,8.7-4.3,11.1-8.5
		c1.6-2.8,2.5-5.9,2.5-9.1c0-6.5-3.5-12.6-9.1-15.8C77.3,0,72.4-0.6,67.7,0.6C63,1.9,59,4.9,56.6,9.1c-1.6,2.8-2.4,5.9-2.4,9.1
		c0,1.9,0.3,3.8,0.9,5.5L31.6,37.3c-2.3-2.5-5.3-4.3-8.6-5.2c-4.7-1.3-9.6-0.6-13.9,1.8C3.5,37.2,0,43.2,0,49.7
		c0,3.2,0.8,6.3,2.4,9.1c2.4,4.2,6.4,7.2,11.1,8.5c4.7,1.3,9.6,0.6,13.9-1.8c1.6-0.9,3-2.1,4.2-3.4L55,75.7
		c-0.6,1.8-0.9,3.7-0.9,5.6c0,6.5,3.5,12.6,9.1,15.8c4.2,2.4,9.2,3.1,13.9,1.8c4.7-1.3,8.7-4.3,11.1-8.5c1.6-2.8,2.5-5.9,2.5-9.1
		C90.7,74.8,87.2,68.8,81.6,65.5z"/>
</g>
</svg>
