<?xml version="1.0" encoding="utf-8"?>
<!-- Generator: Adobe Illustrator 21.0.0, SVG Export Plug-In . SVG Version: 6.00 Build 0)  -->
<svg version="1.1" id="Layer_1" xmlns="http://www.w3.org/2000/svg" xmlns:xlink="http://www.w3.org/1999/xlink" x="0px" y="0px"
	 viewBox="0 0 34 34" style="enable-background:new 0 0 34 34;" xml:space="preserve">
<style type="text/css">
	.st0{fill:#565656;}
</style>
<path class="st0" d="M22.4,23.3c-0.3,0.3-0.5,0.6-0.7,0.9l-8.8-5.3c0.2-0.6,0.4-1.2,0.4-1.9s-0.1-1.3-0.4-1.9l8.8-5.3
	c0.9,1.4,2.5,2.4,4.3,2.4c2.8,0,5.1-2.3,5.1-5.1S28.8,2,26,2s-5.1,2.3-5.1,5.1c0,0.6,0.1,1.2,0.3,1.8l-8.8,5.3
	c-0.9-1.4-2.5-2.3-4.3-2.3c-2.8,0-5.1,2.3-5.1,5.1s2.3,5.1,5.1,5.1c1.8,0,3.3-0.9,4.3-2.3l8.8,5.3c-0.2,0.6-0.3,1.2-0.3,1.8
	c0,1.4,0.5,2.6,1.5,3.6c1,1,2.3,1.5,3.6,1.5s2.6-0.5,3.6-1.5c1-1,1.5-2.2,1.5-3.6c0-1.4-0.5-2.6-1.5-3.6
	C27.6,21.3,24.4,21.3,22.4,23.3z M26,3C28.2,3,30,4.8,30,7.1s-1.8,4.1-4.1,4.1s-4.1-1.8-4.1-4.1S23.7,3,26,3z M8.2,21.1
	c-2.2,0-4.1-1.8-4.1-4.1s1.8-4.1,4.1-4.1s4.1,1.8,4.1,4.1S10.4,21.1,8.2,21.1z M28.8,29.8c-1.6,1.6-4.2,1.6-5.8,0
	c-0.8-0.8-1.2-1.8-1.2-2.9c0-1.1,0.4-2.1,1.2-2.9c0.8-0.8,1.8-1.2,2.9-1.2s2.1,0.4,2.9,1.2c0.8,0.8,1.2,1.8,1.2,2.9
	C30,28,29.6,29,28.8,29.8z"/>
</svg>
