<?xml version="1.0" encoding="utf-8"?>
<!-- Generator: Adobe Illustrator 21.0.0, SVG Export Plug-In . SVG Version: 6.00 Build 0)  -->
<svg version="1.1" id="Layer_1" xmlns="http://www.w3.org/2000/svg" xmlns:xlink="http://www.w3.org/1999/xlink" x="0px" y="0px"
	 viewBox="0 0 32 32" style="enable-background:new 0 0 32 32;" xml:space="preserve">
<style type="text/css">
	.st0{fill:#565656;}
</style>
<path class="st0" d="M7.7,29.3c-0.1,0-0.2,0-0.3-0.1c-0.2-0.1-0.2-0.3-0.2-0.5l1.5-9l-6.6-6.4C2,13.2,2,13,2,12.8
	c0.1-0.2,0.2-0.3,0.4-0.3l9.1-1.3l4.1-8.2c0.1-0.2,0.3-0.3,0.4-0.3l0,0c0.2,0,0.4,0.1,0.4,0.3l4.1,8.2l9.1,1.3
	c0.2,0,0.3,0.2,0.4,0.3c0.1,0.2,0,0.4-0.1,0.5l-6.6,6.4l1.5,9c0,0.2,0,0.4-0.2,0.5c-0.2,0.1-0.4,0.1-0.5,0L16,25l-8.1,4.3
	C7.8,29.3,7.7,29.3,7.7,29.3z M3.6,13.3l6,5.9c0.1,0.1,0.2,0.3,0.1,0.4l-1.4,8.3l7.4-3.9c0.1-0.1,0.3-0.1,0.5,0l7.4,3.9l-1.4-8.3
	c0-0.2,0-0.3,0.1-0.4l6-5.9l-8.3-1.2c-0.2,0-0.3-0.1-0.4-0.3L16,4.3l-3.7,7.5c-0.1,0.1-0.2,0.3-0.4,0.3L3.6,13.3z"/>
</svg>
