<svg id="Layer_1" data-name="Layer 1" xmlns="http://www.w3.org/2000/svg" viewBox="0 0 107.21 48.96"><defs><style>.cls-1{fill:none;stroke:#000;stroke-miterlimit:10;stroke-width:1.88px;}</style></defs><title>hgv-black</title><rect class="cls-1" x="1.49" y="0.94" width="72.56" height="30.33"/><circle class="cls-1" cx="17.1" cy="42.09" r="5.93"/><circle class="cls-1" cx="37.38" cy="42.09" r="5.93"/><circle class="cls-1" cx="91.63" cy="42.09" r="5.93"/><path class="cls-1" d="M14.08,43H4.36V36.22H80.77V7.8L95.6,11.18a10.85,10.85,0,0,1,7.09,6l5.77,13.18a10.83,10.83,0,0,1,1.24,4l-.36,4.75v1.57S109,43,107.11,43h-3.43S102.89,35,95.27,35c-8.32,0-8.82,8-8.82,8H46.51" transform="translate(-3.42 -1.56)"/><line class="cls-1" x1="23.44" y1="41.43" x2="30.88" y2="41.43"/><path class="cls-1" d="M84.39,15.63V25h17.39L100,19.83s-1.1-4.2-4.46-4.2Z" transform="translate(-3.42 -1.56)"/></svg>