<?xml version="1.0" encoding="UTF-8" standalone="no"?>
<!-- Created with Inkscape (http://www.inkscape.org/) -->

<svg
   xmlns:dc="http://purl.org/dc/elements/1.1/"
   xmlns:cc="http://creativecommons.org/ns#"
   xmlns:rdf="http://www.w3.org/1999/02/22-rdf-syntax-ns#"
   xmlns:svg="http://www.w3.org/2000/svg"
   xmlns="http://www.w3.org/2000/svg"
   xmlns:xlink="http://www.w3.org/1999/xlink"
   version="1.1"
   width="100%"
   height="100%"
   viewBox="0 0 98.3 63.5"
   id="Layer_1"
   xml:space="preserve"><metadata
     id="metadata11"><rdf:RDF><cc:Work
         rdf:about=""><dc:format>image/svg+xml</dc:format><dc:type
           rdf:resource="http://purl.org/dc/dcmitype/StillImage" /><dc:title></dc:title></cc:Work></rdf:RDF></metadata><defs
     id="defs9"><linearGradient
       id="linearGradient5200"><stop
         id="stop5202"
         style="stop-color:#ff0004;stop-opacity:1"
         offset="0" /><stop
         id="stop5204"
         style="stop-color:#ff0004;stop-opacity:0.78431374"
         offset="1" /></linearGradient><radialGradient
       cx="82.949852"
       cy="20.106306"
       r="11.807808"
       fx="82.949852"
       fy="20.106306"
       id="radialGradient5206"
       xlink:href="#linearGradient5200"
       gradientUnits="userSpaceOnUse"
       gradientTransform="matrix(1,0,0,1.025,0,-0.50265668)" /></defs><style
     type="text/css"
     id="style3" /><path
     d="M 96.6,0 H 2 0 V 63.5 H 98.3 V 0 H 96.6 z M 33.9,31 49.4,43.9 64,31.7 92.2,59.9 H 5 L 33.9,31 z M 3.6,56.2 V 5.6 L 31.2,28.7 3.6,56.2 z M 66.7,29.4 94.7,5.9 v 51.5 l -28,-28 z M 91.9,3.6 49.4,39.2 6.7,3.6 h 85.2 z"
     id="path5"
     style="fill:#ffffff;fill-opacity:1" /><path
     d="m 94.75766,20.106306 a 11.807808,12.103003 0 1 1 -23.615616,0 11.807808,12.103003 0 1 1 23.615616,0 z"
     transform="matrix(1.6687794,0,0,1.6687794,-60.125005,-13.060374)"
     id="path3764"
     style="fill:url(#radialGradient5206);fill-opacity:1;stroke:none" /></svg>