<?xml version="1.0" encoding="utf-8"?>
<!-- Generator: Adobe Illustrator 21.0.0, SVG Export Plug-In . SVG Version: 6.00 Build 0)  -->
<svg version="1.1" id="Layer_1" xmlns="http://www.w3.org/2000/svg" xmlns:xlink="http://www.w3.org/1999/xlink" x="0px" y="0px"
	 viewBox="0 0 34 34" style="enable-background:new 0 0 34 34;" xml:space="preserve">
<style type="text/css">
	.st0{fill:#565656;}
</style>
<g>
	<g>
		<path class="st0" d="M26.3,22.8c-0.1,0-0.2,0-0.3-0.1l-5.6-5.2c-0.2-0.2-0.2-0.5,0-0.7c0.2-0.2,0.5-0.2,0.7,0l5.6,5.2
			c0.2,0.2,0.2,0.5,0,0.7C26.5,22.8,26.4,22.8,26.3,22.8z"/>
		<path class="st0" d="M7.7,22.8c-0.1,0-0.3-0.1-0.4-0.2c-0.2-0.2-0.2-0.5,0-0.7l5.6-5.2c0.2-0.2,0.5-0.2,0.7,0
			c0.2,0.2,0.2,0.5,0,0.7L8,22.7C7.9,22.8,7.8,22.8,7.7,22.8z"/>
	</g>
	<path class="st0" d="M29.6,27.7H4.4c-1.3,0-2.4-1.1-2.4-2.4V8.8c0-1.3,1.1-2.4,2.4-2.4h25.2c1.3,0,2.4,1.1,2.4,2.4v16.5
		C32,26.6,30.9,27.7,29.6,27.7z M4.4,7.3C3.6,7.3,3,8,3,8.8v16.5c0,0.8,0.7,1.5,1.5,1.5h25.2c0.8,0,1.5-0.7,1.5-1.5V8.8
		c0-0.8-0.7-1.5-1.5-1.5H4.4z"/>
	<path class="st0" d="M17,19.4c-0.6,0-1.3-0.2-1.8-0.6L2.8,8c-0.2-0.2-0.2-0.5,0-0.7c0.2-0.2,0.5-0.2,0.7,0l12.4,10.8
		c0.6,0.5,1.7,0.5,2.3,0L30.5,7.2c0.2-0.2,0.5-0.2,0.7,0c0.2,0.2,0.2,0.5,0,0.7L18.8,18.8C18.3,19.2,17.6,19.4,17,19.4z"/>
</g>
</svg>
