<?xml version="1.0" encoding="utf-8"?>
<!-- Generator: Adobe Illustrator 21.0.0, SVG Export Plug-In . SVG Version: 6.00 Build 0)  -->
<svg version="1.1" id="Layer_1" xmlns="http://www.w3.org/2000/svg" xmlns:xlink="http://www.w3.org/1999/xlink" x="0px" y="0px"
	 viewBox="0 0 34 34" style="enable-background:new 0 0 34 34;" xml:space="preserve">
<style type="text/css">
	.st0{fill:#6F3F74;}
</style>
<g>
	<g>
		<g>
			<path class="st0" d="M31.3,6.1H2.7C2.3,6.1,2,6.4,2,6.8v20.5c0,0.4,0.3,0.7,0.7,0.7h28.6c0.4,0,0.7-0.3,0.7-0.7V6.8
				C32,6.4,31.7,6.1,31.3,6.1z M30.6,24.9l-8.4-8.4l-1,1l9.1,9.1H3.6l9.1-9.1l-1-1l-8.4,8.4V7.5h27.3V24.9z"/>
		</g>
	</g>
	<g>
		<g>
			<path class="st0" d="M29.3,7.5L17,19.7L4.7,7.5H3.4V8l13.2,13.2c0.3,0.3,0.7,0.3,1,0L30.6,8V7.5H29.3z"/>
		</g>
	</g>
</g>
</svg>
