<svg id="Layer_1" data-name="Layer 1" xmlns="http://www.w3.org/2000/svg" viewBox="0 0 20 20"><defs><style>.cls-1{fill:#78c143;}.cls-2{fill:#fff;}</style></defs><title>Artboard 1 copy 4</title><circle class="cls-1" cx="10" cy="10" r="10"/><path class="cls-2" d="M10,12.25H13.4a1.21,1.21,0,0,1,1.21,1.21h0a1.21,1.21,0,0,1-1.21,1.21H7a1.17,1.17,0,0,1-.83-.34h0a1.17,1.17,0,0,1-.34-.83V7.07A1.21,1.21,0,0,1,7,5.87H7A1.21,1.21,0,0,1,8.23,7.07v3.44l4.46-4.46a1.22,1.22,0,0,1,1.73,0h0a1.22,1.22,0,0,1,0,1.73L10,12.25Z"/></svg>