<svg id="Layer_1" data-name="Layer 1" xmlns="http://www.w3.org/2000/svg" viewBox="0 0 20 20"><defs><style>.cls-1{fill:#78c143;}.cls-2{fill:#fff;}</style></defs><title>Artboard 1 copy 6</title><circle class="cls-1" cx="10" cy="10" r="10"/><path class="cls-2" d="M8.23,9.84v3.44A1.21,1.21,0,0,1,7,14.49H7a1.21,1.21,0,0,1-1.21-1.21V6.87A1.17,1.17,0,0,1,6.15,6h0A1.17,1.17,0,0,1,7,5.7H13.4a1.21,1.21,0,0,1,1.21,1.21h0A1.21,1.21,0,0,1,13.4,8.12H10l4.46,4.46a1.22,1.22,0,0,1,0,1.73h0a1.22,1.22,0,0,1-1.73,0L8.23,9.84Z"/></svg>