<svg id="Layer_1" data-name="Layer 1" xmlns="http://www.w3.org/2000/svg" viewBox="0 0 20 20"><defs><style>.cls-1{fill:#78c143;}.cls-2{fill:#fff;}</style></defs><title>Artboard 1 copy 2</title><circle class="cls-1" cx="10" cy="10" r="10"/><path class="cls-2" d="M12.36,10.52V7.07a1.21,1.21,0,0,1,1.21-1.21h0a1.21,1.21,0,0,1,1.21,1.21v6.42a1.17,1.17,0,0,1-.34.83h0a1.17,1.17,0,0,1-.83.34H7.18A1.21,1.21,0,0,1,6,13.45H6a1.21,1.21,0,0,1,1.21-1.21h3.44L6.17,7.79a1.22,1.22,0,0,1,0-1.73h0a1.22,1.22,0,0,1,1.73,0l4.46,4.46Z"/></svg>