<svg id="Layer_1" data-name="Layer 1" xmlns="http://www.w3.org/2000/svg" viewBox="0 0 20 20"><defs><style>.cls-1{fill:#78c143;}.cls-2{fill:#fff;}</style></defs><title>Artboard 1 copy 7</title><circle class="cls-1" cx="10" cy="10" r="10"/><path class="cls-2" d="M9.07,8.48,6.63,10.92a1.21,1.21,0,0,1-1.71,0h0a1.21,1.21,0,0,1,0-1.71L9.46,4.67a1.17,1.17,0,0,1,.83-.34h0a1.17,1.17,0,0,1,.83.34l4.54,4.54a1.21,1.21,0,0,1,0,1.71h0a1.21,1.21,0,0,1-1.71,0L11.51,8.48v6.31A1.22,1.22,0,0,1,10.29,16h0a1.22,1.22,0,0,1-1.22-1.22c0-2.13,0-6.31,0-6.31Z"/></svg>