<svg id="Layer_1" data-name="Layer 1" xmlns="http://www.w3.org/2000/svg" viewBox="0 0 20 20"><defs><style>.cls-1{fill:#78c143;}.cls-2{fill:#fff;}</style></defs><title>Artboard 1 copy</title><circle class="cls-1" cx="10" cy="10" r="10"/><path class="cls-2" d="M12,9,9.55,6.52a1.21,1.21,0,0,1,0-1.71h0a1.21,1.21,0,0,1,1.71,0L15.8,9.35a1.17,1.17,0,0,1,.34.83h0a1.17,1.17,0,0,1-.34.83l-4.54,4.54a1.21,1.21,0,0,1-1.71,0h0a1.21,1.21,0,0,1,0-1.71L12,11.4H5.68a1.22,1.22,0,0,1-1.22-1.22h0A1.22,1.22,0,0,1,5.68,9H12Z"/></svg>