<svg id="Layer_1" data-name="Layer 1" xmlns="http://www.w3.org/2000/svg" viewBox="0 0 20 20"><defs><style>.cls-1{fill:#78c143;}.cls-2{fill:#fff;}</style></defs><title>Artboard 1 copy 3</title><circle class="cls-1" cx="10" cy="10" r="10"/><path class="cls-2" d="M11.51,11.88l2.44-2.44a1.21,1.21,0,0,1,1.71,0h0a1.21,1.21,0,0,1,0,1.71l-4.54,4.54a1.17,1.17,0,0,1-.83.34h0a1.17,1.17,0,0,1-.83-.34L4.93,11.15a1.21,1.21,0,0,1,0-1.71h0a1.21,1.21,0,0,1,1.71,0l2.44,2.44V5.57a1.22,1.22,0,0,1,1.22-1.22h0a1.22,1.22,0,0,1,1.22,1.22c0,2.13,0,6.31,0,6.31Z"/></svg>