<svg id="Layer_1" data-name="Layer 1" xmlns="http://www.w3.org/2000/svg" viewBox="0 0 20 20"><defs><style>.cls-1{fill:#78c143;}.cls-2{fill:#fff;}</style></defs><title>Artboard 1</title><circle class="cls-1" cx="10" cy="10" r="10"/><path class="cls-2" d="M10.63,8.12H7.18A1.21,1.21,0,0,1,6,6.91H6A1.21,1.21,0,0,1,7.18,5.7H13.6a1.17,1.17,0,0,1,.83.34h0a1.17,1.17,0,0,1,.34.83v6.42a1.21,1.21,0,0,1-1.21,1.21h0a1.21,1.21,0,0,1-1.21-1.21V9.84L7.9,14.3a1.22,1.22,0,0,1-1.73,0h0a1.22,1.22,0,0,1,0-1.73l4.46-4.46Z"/></svg>