<svg id="Layer_1" data-name="Layer 1" xmlns="http://www.w3.org/2000/svg" viewBox="0 0 20 20"><defs><style>.cls-1{fill:#78c143;}.cls-2{fill:#fff;}</style></defs><title>Artboard 1 copy 5</title><circle class="cls-1" cx="10" cy="10" r="10"/><path class="cls-2" d="M8.59,11.4,11,13.84a1.21,1.21,0,0,1,0,1.71h0a1.21,1.21,0,0,1-1.71,0L4.78,11a1.17,1.17,0,0,1-.34-.83h0a1.17,1.17,0,0,1,.34-.83L9.32,4.82a1.21,1.21,0,0,1,1.71,0h0a1.21,1.21,0,0,1,0,1.71L8.59,9H14.9a1.22,1.22,0,0,1,1.22,1.22h0A1.22,1.22,0,0,1,14.9,11.4H8.59Z"/></svg>