<svg id="Layer_1" data-name="Layer 1" xmlns="http://www.w3.org/2000/svg" viewBox="0 0 75.56 43.42"><defs><style>.cls-1{fill:none;stroke:#fff;stroke-miterlimit:10;stroke-width:1.79px;}</style></defs><title>truck-white</title><rect class="cls-1" x="0.9" y="0.9" width="45.27" height="26.81"/><circle class="cls-1" cx="15.66" cy="37.28" r="5.25"/><circle class="cls-1" cx="61.71" cy="37.28" r="5.25"/><path class="cls-1" d="M14.41,39.22H5.47v-6h48V8.1l13.12,3a9.59,9.59,0,0,1,6.27,5.32l5.1,11.66A9.58,9.58,0,0,1,79,31.64l-.32,4.2v1.38s-.29,2-2,2h-3s-.69-7.15-7.43-7.15c-7.36,0-7.8,7.1-7.8,7.1h-33" transform="translate(-4.38 -2.52)"/><path class="cls-1" d="M56.67,15v8.31H72l-1.59-4.59S69.49,15,66.51,15Z" transform="translate(-4.38 -2.52)"/></svg>