<svg id="Layer_1" data-name="Layer 1" xmlns="http://www.w3.org/2000/svg" viewBox="0 0 78.1 42.55"><defs><style>.cls-1{fill:none;stroke:#000;stroke-miterlimit:10;stroke-width:2px;}</style></defs><title>van-black</title><path class="cls-1" d="M11.17,40.32H7.45A4.29,4.29,0,0,1,3.17,36V8A3.19,3.19,0,0,1,6.36,4.82L47,4.62l4.37,0c3.46.24,5.1,1,8,5.25,2.24,3.25,7,8.4,8.74,11.11l9.69,6.21a5.18,5.18,0,0,1,1.49,3.3l0,7.68a2.13,2.13,0,0,1-2.13,2.12H70.29" transform="translate(-2.17 -3.62)"/><line class="cls-1" x1="55.33" y1="36.71" x2="21.6" y2="36.71"/><path class="cls-1" d="M60.79,12.74H49.29a1.72,1.72,0,0,0-1.72,1.72v7.79A1.72,1.72,0,0,0,49.29,24H66.41a3,3,0,0,0,1.68-3" transform="translate(-2.17 -3.62)"/><circle class="cls-1" cx="15.36" cy="35.7" r="5.85"/><circle class="cls-1" cx="61.69" cy="35.7" r="5.85"/></svg>