<svg id="Layer_1" data-name="Layer 1" xmlns="http://www.w3.org/2000/svg" viewBox="0 0 15.69 15.69"><defs><style>.cls-1{fill:#57b1e3;}.cls-2{fill:none;stroke:#fff;stroke-miterlimit:10;stroke-width:0.75px;}</style></defs><title>vehicle-status-key-on</title><path class="cls-1" d="M8.47,6.27a.12.12,0,0,0-.18.17l2.05,2.1a.12.12,0,0,0,.18-.17Z"/><path class="cls-1" d="M6.36,9.42a.12.12,0,1,1-.18-.18l.7-.7L6.62,8.3l-.78.78v.66a.12.12,0,0,1-.15.12L5,9.73l.11.7a.12.12,0,0,1,0,.1.13.13,0,0,1-.1,0l-.54-.06-.63.63,0,.64.62,0L7.28,8.94l-.22-.22Z"/><circle class="cls-1" cx="11.74" cy="6.68" r="0.53"/><path class="cls-1" d="M7.85.38a7.47,7.47,0,1,0,7.47,7.47A7.48,7.48,0,0,0,7.85.38ZM13,7.18l-3.3,3.17a.68.68,0,0,1-1,0L7.46,9.12,4.55,12a.12.12,0,0,1-.09,0h0l-.79,0a.12.12,0,0,1-.12-.13l0-.81a.12.12,0,0,1,0-.09l.7-.7a.13.13,0,0,1,.1,0l.44,0-.11-.72a.12.12,0,0,1,.15-.14l.7.14V9a.12.12,0,0,1,0-.09l.82-.82L6.34,8a.68.68,0,0,1,0-1l3.3-3.17a.68.68,0,0,1,1,0L13,6.22A.68.68,0,0,1,13,7.18Z"/><circle class="cls-2" cx="7.85" cy="7.85" r="7.47"/></svg>