<?xml version="1.0" encoding="UTF-8"?>
<svg width="24px" height="24px" viewBox="0 0 24 24" version="1.1" xmlns="http://www.w3.org/2000/svg" xmlns:xlink="http://www.w3.org/1999/xlink">
    <!-- Generator: Sketch 43.2 (39069) - http://www.bohemiancoding.com/sketch -->
    <title>car-icon</title>
    <desc>Created with Sketch.</desc>
    <defs></defs>
    <g id="Icons" stroke="none" stroke-width="1" fill="none" fill-rule="evenodd">
        <g id="car-icon" fill-rule="nonzero" fill="#6C6E70">
            <path d="M2.81759518,15.8846076 L1.01148245,15.8846076 C0.728998491,15.8846076 0.5,15.6506209 0.5,15.3619836 L0.5,11.1809918 C0.5,11.0104524 0.58143362,10.8506395 0.718166523,10.7528416 L5.83299098,7.09447373 C5.91896276,7.03298259 6.02136498,7 6.12630691,7 L13.7371653,7 C13.8526271,7 13.9646923,7.03991709 14.0551323,7.11325839 C14.4692203,7.44905835 15.0717245,7.93477758 15.8134399,8.53112958 C16.3479989,8.96091358 16.9071907,9.40986936 17.4663875,9.85840734 C17.7363578,10.0749535 17.9580622,10.252694 18.1120397,10.3760923 L23.0959403,11.293802 C23.3300994,11.3369188 23.5042375,11.5393237 23.5160765,11.7821362 L23.6893538,15.3359788 C23.703907,15.6344588 23.470984,15.8846076 23.1785049,15.8846076 L21.2235725,15.8846076 C21.2239515,15.9019827 21.224142,15.9194043 21.224142,15.9368702 C21.224142,17.2355588 20.1710227,18.2886781 18.8723341,18.2886781 C17.5734337,18.2886781 16.5205262,17.2356501 16.5205262,15.9368702 C16.5205262,15.9194042 16.5207166,15.9019827 16.5210955,15.8846076 L7.5200722,15.8846076 C7.5204512,15.9019827 7.52064168,15.9194043 7.52064168,15.9368702 C7.52064168,17.2355588 6.46752239,18.2886781 5.16883378,18.2886781 C3.8699334,18.2886781 2.81702589,17.2356501 2.81702589,15.9368702 C2.81702589,15.9194042 2.81721631,15.9019827 2.81759518,15.8846076 Z M3.01251898,14.9966264 C3.37532095,14.1657876 4.20424713,13.5850623 5.16883378,13.5850623 C6.11986956,13.5850623 6.93921384,14.1498188 7.30973109,14.9621962 L16.7675965,14.8864178 C17.1534201,14.1148837 17.9509926,13.5850623 18.8723341,13.5850623 C19.7800793,13.5850623 20.5678491,14.0995742 20.9598742,14.8528284 L22.6409062,14.8393596 L22.5145984,12.2488414 L17.8056293,11.3817562 C17.7235654,11.3666454 17.6463615,11.331263 17.5807419,11.2786907 C17.4314919,11.1591163 17.1704133,10.949843 16.8347275,10.6805857 C16.2752476,10.2318206 15.7157626,9.78262938 15.1935427,9.36276613 C14.5175891,8.81928786 13.9654179,8.37429805 13.5589826,8.04524795 L6.28753754,8.04524795 C4.81901261,9.09560744 4.78350153,9.12100666 4.18188713,9.55131015 L3.54253407,10.0086061 C2.9655143,10.4213183 2.90925815,10.4615554 1.7287932,11.3058806 L1.52296489,11.5057408 C1.52296489,11.921421 1.52296489,14.6264388 1.52296489,14.6264388 C1.52296489,14.7973358 1.52296489,14.9187626 1.52296489,15.008561 L3.01251898,14.9966264 Z M17.5657742,15.9368702 C17.5657742,16.6584024 18.150735,17.2434301 18.8723341,17.2434301 C19.5937482,17.2434301 20.1788941,16.6582843 20.1788941,15.9368702 C20.1788941,15.2154561 19.5937482,14.6303103 18.8723341,14.6303103 C18.150735,14.6303103 17.5657742,15.215338 17.5657742,15.9368702 Z M3.86227384,15.9368702 C3.86227384,16.6584024 4.44723468,17.2434301 5.16883378,17.2434301 C5.89024789,17.2434301 6.47539373,16.6582843 6.47539373,15.9368702 C6.47539373,15.2154561 5.89024789,14.6303103 5.16883378,14.6303103 C4.44723468,14.6303103 3.86227384,15.215338 3.86227384,15.9368702 Z M8.87946397,11.1809918 L15.1509517,11.1809918 L12.4465229,9.09049591 L6.54563457,9.09049591 C4.34730548,10.618668 4.26209855,10.5779374 3.6532242,11.1809918 L3.6532242,11.1809918 L7.83421601,11.1809918 L7.83421601,9.09049591 L8.87946397,9.09049591 L8.87946397,11.1809918 Z" id="Path-2"></path>
        </g>
    </g>
</svg>