<?xml version="1.0" encoding="UTF-8"?>
<svg width="24px" height="24px" viewBox="0 0 24 24" version="1.1" xmlns="http://www.w3.org/2000/svg" xmlns:xlink="http://www.w3.org/1999/xlink">
    <!-- Generator: Sketch 43.2 (39069) - http://www.bohemiancoding.com/sketch -->
    <title>str-bike</title>
    <desc>Created with Sketch.</desc>
    <defs>
        <polygon id="path-1" points="0 0.0333666667 0 6.74074074 6.82354286 6.74074074 6.82354286 0.0333666667 0 0.0333666667"></polygon>
        <polygon id="path-3" points="8.83484082 12.5185185 0.129208163 12.5185185 0.129208163 0.0285518519 8.83484082 0.0285518519 8.83484082 12.5185185"></polygon>
    </defs>
    <g id="Icons" stroke="none" stroke-width="1" fill="none" fill-rule="evenodd">
        <g id="str-bike">
            <polygon id="Fill-1" fill="#6C6E70" points="9.37632653 10.8011778 9.37632653 9.83243704 5.49371429 9.83243704 1.61159184 8.95084444 1.61159184 9.83243704 5.49371429 10.8011778"></polygon>
            <g id="Group-12" transform="translate(0.200000, 5.452833)">
                <g id="Group-4" transform="translate(0.000000, 5.777778)">
                    <mask id="mask-2" fill="white">
                        <use xlink:href="#path-1"></use>
                    </mask>
                    <g id="Clip-3"></g>
                    <path d="M3.41162449,5.81547778 C2.04754286,5.81547778 0.941093878,4.72829259 0.941093878,3.38688519 C0.941093878,2.04547778 2.04754286,0.958292593 3.41162449,0.958292593 C4.77619592,0.958292593 5.8821551,2.04547778 5.8821551,3.38688519 C5.8821551,4.72829259 4.77619592,5.81547778 3.41162449,5.81547778 M3.41162449,0.0333666667 C1.52737959,0.0333666667 -0.000293877551,1.53462593 -0.000293877551,3.38688519 C-0.000293877551,5.23914444 1.52737959,6.74088519 3.41162449,6.74088519 C5.29586939,6.74088519 6.82354286,5.23914444 6.82354286,3.38688519 C6.82354286,1.53462593 5.29586939,0.0333666667 3.41162449,0.0333666667" id="Fill-2" fill="#6C6E70" mask="url(#mask-2)"></path>
                </g>
                <g id="Group-7" transform="translate(14.693878, 0.000000)">
                    <mask id="mask-4" fill="white">
                        <use xlink:href="#path-3"></use>
                    </mask>
                    <g id="Clip-6"></g>
                    <path d="M5.42341224,11.5932556 C4.05884082,11.5932556 2.95288163,10.5060704 2.95288163,9.16466296 C2.95288163,8.27681111 3.4372898,7.50018148 4.16120816,7.07647778 L4.77884082,8.74384815 C4.82341224,8.8647 4.95810612,8.92825556 5.08349388,8.88347778 L5.52088163,8.72651481 C5.6443102,8.6827 5.70896327,8.55077407 5.66292245,8.42703333 L5.04724898,6.7639963 C5.16969796,6.7457 5.29508571,6.73607037 5.42341224,6.73607037 C6.78749388,6.73607037 7.89394286,7.82325556 7.89394286,9.16466296 C7.89394286,10.5060704 6.78749388,11.5932556 5.42341224,11.5932556 M5.42341224,5.81114444 C5.18243265,5.81114444 4.94733061,5.8357 4.7205551,5.8824037 L3.00871837,1.25921852 C2.96414694,1.13788519 2.82994286,1.07481111 2.7045551,1.11958889 L2.65116735,1.13884815 L2.02520816,0.0285518519 L0.129208163,0.0285518519 L0.129208163,0.493181481 L1.75288163,0.493181481 L2.20986122,1.30544074 C2.12512653,1.36418148 2.08692245,1.4729963 2.12463673,1.57555185 L3.83549388,6.19584815 C2.75108571,6.75725556 2.01149388,7.87621852 2.01149388,9.16466296 C2.01149388,11.0169222 3.53867755,12.518663 5.42341224,12.518663 C7.30765714,12.518663 8.83484082,11.0169222 8.83484082,9.16466296 C8.83484082,7.3124037 7.30765714,5.81114444 5.42341224,5.81114444" id="Fill-5" fill="#6C6E70" mask="url(#mask-4)"></path>
                </g>
                <path d="M15.0677388,5.81104815 L9.21271837,5.81104815 L9.21271837,6.78267778 L15.3410449,6.78267778 C15.4698612,6.78267778 15.5335347,6.87752963 15.4835755,6.99452963 L14.7518204,8.69849259 C14.7518204,8.69849259 14.4084735,9.6811963 13.3652082,9.6966037 L9.69957551,9.6966037 C8.69108571,9.6966037 7.77026939,8.86364074 7.77026939,8.86364074 L7.29418776,9.6966037 C7.29418776,9.6966037 8.26398367,10.6682333 9.69957551,10.6682333 L13.595902,10.6682333 C14.9560653,10.6682333 15.5746776,9.4549 15.5746776,9.4549 L16.3544327,7.26608519 C16.3544327,7.26608519 17.0416163,5.81104815 15.0677388,5.81104815" id="Fill-8" fill="#6C6E70"></path>
                <path d="M14.8572735,1.41632593 C11.0535184,1.41632593 9.88241633,5.04814074 9.88241633,5.04814074 L11.0535184,5.11699259 C11.0535184,5.11699259 12.1065796,2.3061037 14.8572735,2.3061037 C16.6905796,2.3061037 15.2985796,5.11699259 14.6016,5.11699259 L15.8598857,5.11699259 C16.4353959,5.11699259 17.8611918,1.51791852 14.8572735,1.41632593" id="Fill-10" fill="#6C6E70"></path>
            </g>
        </g>
    </g>
</svg>