<?xml version="1.0" encoding="UTF-8"?>
<svg width="24px" height="24px" viewBox="0 0 24 24" version="1.1" xmlns="http://www.w3.org/2000/svg" xmlns:xlink="http://www.w3.org/1999/xlink">
    <!-- Generator: Sketch 43.2 (39069) - http://www.bohemiancoding.com/sketch -->
    <title>str-icon</title>
    <desc>Created with Sketch.</desc>
    <defs></defs>
    <g id="Icons" stroke="none" stroke-width="1" fill="none" fill-rule="evenodd">
        <g id="str-icon" fill-rule="nonzero" fill="#6C6E70">
            <path d="M20.9492935,18 C20.9174133,19.3527388 19.8103878,20.4399996 18.4499998,20.4399996 C17.089191,20.4399996 15.9825741,19.3527388 15.9507059,18 L13.4965773,18 L9.32004641,18 C9.28894756,19.3534227 8.18202708,20.4414732 6.82114517,20.4414732 C5.45942138,20.4414732 4.35248898,19.3534227 4.32138996,18 L2.00684547,18 C1.45078007,18 1,17.5500512 1,16.9931545 L1,5.00684547 C1,4.45078007 1.44994876,4 2.00684547,4 L13.9931545,4 C14.5492199,4 15,4.44994876 15,5.00684547 L15,8.00000364 C15.0009106,8.00000121 15.0018215,8 15.0027327,8 L19.9908447,8 L23,12.0996094 L23,16.9990792 C23,17.5518725 22.5536886,18 22.0024554,18 L20.9492935,18 Z M20.7672814,17.0000677 C21.5001594,16.9999908 22.0002714,17 22.0002714,17 C22.0000722,16.999883 22,12.4272235 22,12.4272235 L19.4843829,9 L15.0027327,9 C15.0002632,9 15,17.0046024 15,17.0046024 C14.9998643,17.0033968 15.4544248,17.0025068 16.1319392,17.0018498 C16.5029143,16.0859363 17.4009212,15.4399996 18.4499998,15.4399996 C19.4980738,15.4399996 20.3957641,16.0850986 20.7672814,17.0000677 Z M9.13685748,16.9985791 C11.7104812,16.9994959 13.9931545,17 13.9931545,17 C13.9973516,17 14,5.00684547 14,5.00684547 C14,5.00264837 2.00684547,5 2.00684547,5 C2.00264837,5 2,16.9931545 2,16.9931545 C2,16.9943899 3.03904471,16.9954911 4.50546772,16.9964301 C4.87816772,16.0841706 5.77437673,15.4414732 6.82114517,15.4414732 C7.86808771,15.4414732 8.76472554,16.0851801 9.13685748,16.9985791 Z M8.30000019,17.9499998 C8.30000019,17.1214772 7.62826663,16.4499998 6.80000019,16.4499998 C5.97147756,16.4499998 5.30000019,17.1214772 5.30000019,17.9499998 C5.30000019,18.7782662 5.97147756,19.4499998 6.80000019,19.4499998 C7.62826663,19.4499998 8.30000019,18.7782662 8.30000019,17.9499998 Z M20,17.9499998 C20,17.1214772 19.3282664,16.4499998 18.5,16.4499998 C17.6714774,16.4499998 17,17.1214772 17,17.9499998 C17,18.7782662 17.6714774,19.4499998 18.5,19.4499998 C19.3282664,19.4499998 20,18.7782662 20,17.9499998 Z M16,10.3999996 L18.8999996,10.3999996 L20.2000008,12.1999998 L20.2000008,13.1999998 L16,13.1999998 L16,10.3999996 Z" id="Combined-Shape"></path>
        </g>
    </g>
</svg>