<?xml version="1.0" encoding="UTF-8"?>
<svg width="24px" height="24px" viewBox="0 0 24 24" version="1.1" xmlns="http://www.w3.org/2000/svg" xmlns:xlink="http://www.w3.org/1999/xlink">
    <!-- Generator: Sketch 43.2 (39069) - http://www.bohemiancoding.com/sketch -->
    <title>trips-icon</title>
    <desc>Created with Sketch.</desc>
    <defs></defs>
    <g id="Icons" stroke="none" stroke-width="1" fill="none" fill-rule="evenodd">
        <g id="trips-icon">
            <g id="circle-outline-icon" transform="translate(1.000000, 1.000000)" stroke="#221F20" stroke-width="0.25">
                <path d="M21.8258198,11.0870901 C21.8258198,5.06010799 16.9400662,0.174180166 10.9130841,0.174180166 C4.88592783,0.174180166 5.38458167e-15,5.06010799 5.38458167e-15,11.0870901 C5.38458167e-15,17.1140722 4.88592783,22 10.9130841,22 C16.9400662,22 21.8258198,17.1140722 21.8258198,11.0870901 Z" id="Page-1"></path>
            </g>
            <path d="M16.9882349,7.5 L16.8705879,7.5 L16.5764702,7.5 L16.4588231,7.5 L16.1647055,7.5 L16.0470584,7.5 L15.7529408,7.5 L15.6352937,7.5 L15.3411761,7.5 L15.223529,7.5 L14.9294114,7.5 L14.8117643,7.5 L14.3999996,7.5 L14.3999996,7.55882353 L14.3999996,7.91176471 L14.3999996,8.02941176 L14.3999996,8.32352941 L14.3999996,8.44117647 L14.3999996,8.73529412 L14.3999996,8.85294118 L14.3999996,9.26470588 L14.3999996,11.4941176 C14.3999996,11.5882353 14.4764702,11.6647059 14.5705879,11.6647059 L14.605882,11.6647059 C14.6999996,11.6647059 14.7764702,11.5882353 14.7764702,11.4941176 L14.7764702,9.26470588 L14.8117643,9.26470588 L14.9294114,9.26470588 L15.223529,9.26470588 L15.3411761,9.26470588 L15.6352937,9.26470588 L15.7529408,9.26470588 L16.0470584,9.26470588 L16.1647055,9.26470588 L16.4588231,9.26470588 L16.5764702,9.26470588 L16.8705879,9.26470588 L16.9882349,9.26470588 L17.3999996,9.26470588 L17.3999996,8.85294118 L17.3999996,8.73529412 L17.3999996,8.44117647 L17.3999996,8.32352941 L17.3999996,8.02941176 L17.3999996,7.91176471 L17.3999996,7.5 L16.9882349,7.5 L16.9882349,7.5 Z M16.8705879,8.32352941 L16.5764702,8.32352941 L16.5764702,8.02941176 L16.8705879,8.02941176 L16.8705879,8.32352941 Z M16.1647055,8.73529412 L16.1647055,8.44117647 L16.4588231,8.44117647 L16.4588231,8.73529412 L16.1647055,8.73529412 Z M15.3411761,8.73529412 L15.3411761,8.44117647 L15.6352937,8.44117647 L15.6352937,8.73529412 L15.3411761,8.73529412 Z M14.9294114,8.02941176 L15.223529,8.02941176 L15.223529,8.32352941 L14.9294114,8.32352941 L14.9294114,8.02941176 Z M16.0470584,8.02941176 L16.0470584,8.32352941 L15.7529408,8.32352941 L15.7529408,8.02941176 L16.0470584,8.02941176 Z M16.1647055,7.61764706 L16.4588231,7.61764706 L16.4588231,7.91176471 L16.1647055,7.91176471 L16.1647055,7.61764706 Z M15.3411761,7.61764706 L15.6352937,7.61764706 L15.6352937,7.91176471 L15.3411761,7.91176471 L15.3411761,7.61764706 Z M14.5176467,7.61764706 L14.8117643,7.61764706 L14.8117643,7.91176471 L14.5176467,7.91176471 L14.5176467,7.61764706 Z M14.5176467,8.44117647 L14.8117643,8.44117647 L14.8117643,8.73529412 L14.5176467,8.73529412 L14.5176467,8.44117647 Z M14.6588231,11.4941176 C14.6588231,11.5235294 14.6352937,11.5470588 14.605882,11.5470588 L14.5705879,11.5470588 C14.5411761,11.5470588 14.5176467,11.5235294 14.5176467,11.4941176 L14.5176467,9.26470588 L14.6588231,9.26470588 L14.6588231,11.4941176 Z M15.223529,9.14705882 L14.9294114,9.14705882 L14.9294114,8.85294118 L15.223529,8.85294118 L15.223529,9.14705882 Z M16.0470584,9.14705882 L15.7529408,9.14705882 L15.7529408,8.85294118 L16.0470584,8.85294118 L16.0470584,9.14705882 Z M16.8705879,9.14705882 L16.5764702,9.14705882 L16.5764702,8.85294118 L16.8705879,8.85294118 L16.8705879,9.14705882 Z M17.2823526,8.73529412 L16.9882349,8.73529412 L16.9882349,8.44117647 L17.2823526,8.44117647 L17.2823526,8.73529412 Z M16.9882349,7.91176471 L16.9882349,7.61764706 L17.2823526,7.61764706 L17.2823526,7.91176471 L16.9882349,7.91176471 Z" id="Shape" fill="#000000" fill-rule="nonzero" transform="translate(15.900000, 9.582353) scale(-1, 1) translate(-15.900000, -9.582353) "></path>
            <path d="M7.80000019,13.8000002 C7.80000019,13.8000002 5,10 8,9 C11,8 12,15 15,15 C18,15 17.1157025,11.6731302 17.1157025,11.6731302" id="Path-2" stroke="#000000" stroke-width="0.3" stroke-linecap="round" stroke-dasharray="1"></path>
            <path d="M9.68719941,14.9335662 C9.68537975,14.4159931 9.26160031,13.9979995 8.7401656,14.0000072 C8.21913525,14.0016133 7.7981864,14.4226183 7.80000607,14.9399907 C7.80202792,15.4573631 8.22560517,15.8755574 8.74703988,15.8737505 C9.26807023,15.8719436 9.68901907,15.4509386 9.68719941,14.9335662 Z" id="Stroke-5" stroke="#221F20" stroke-width="0.3"></path>
            <path d="M12.2999955,11.8473491 C12.2985492,11.4330157 11.9617182,11.098399 11.5472683,11.1000061 C11.1331397,11.1012919 10.7985585,11.4383194 10.8000049,11.8524921 C10.8016119,12.2666647 11.1382822,12.6014422 11.5527321,12.5999957 C11.9668607,12.5985492 12.3014418,12.2615217 12.2999955,11.8473491 Z" id="Stroke-5" fill="#000000"></path>
        </g>
    </g>
</svg>