<?xml version="1.0" encoding="UTF-8"?>
<svg width="24px" height="24px" viewBox="0 0 24 24" version="1.1" xmlns="http://www.w3.org/2000/svg" xmlns:xlink="http://www.w3.org/1999/xlink">
    <!-- Generator: Sketch 43.2 (39069) - http://www.bohemiancoding.com/sketch -->
    <title>van-icon</title>
    <desc>Created with Sketch.</desc>
    <defs></defs>
    <g id="Icons" stroke="none" stroke-width="1" fill="none" fill-rule="evenodd">
        <g id="van-icon" fill="#6C6E70">
            <path d="M15.9500216,16.9505366 L9.3207021,16.9505366 C9.31581641,18.3268143 8.19856684,19.4414732 6.82114517,19.4414732 C5.44287139,19.4414732 4.32561996,18.3268143 4.32073427,16.9505366 L3.16863636,16.9505366 C2.23868849,16.9505366 1.5,16.1576699 1.5,15.1960976 L1.5,6.99307317 C1.5,6.20901868 2.10518182,5.55941463 2.86731685,5.55942183 L13.945811,5.50001743 L15.1701524,5.51129977 C16.3464306,5.59786699 16.9078798,5.97169909 17.7441843,7.27709439 C17.9619943,7.61705247 18.2556266,8.01476045 18.7866489,8.7032525 C18.8132453,8.73772879 18.8132453,8.73772879 18.8398729,8.77222264 C19.6191515,9.78157887 19.8657047,10.1089875 20.077237,10.4467972 L22.655521,12.2214463 C22.9949802,12.4844755 23.2560949,13.1483949 23.2542692,13.5838318 L23.2458157,15.8313449 C23.2438732,16.4426414 22.7687568,16.9505366 22.1651818,16.9505366 L20.9499781,16.9505366 C20.9442983,18.3261362 19.8269298,19.4399996 18.4499998,19.4399996 C17.0726439,19.4399996 15.9556992,18.3261362 15.9500216,16.9505366 Z M16.1533946,15.9505366 C16.5366959,15.0619033 17.4206224,14.4399996 18.4499998,14.4399996 C19.4790589,14.4399996 20.3631416,15.0619033 20.7465431,15.9505366 L22.1651818,15.9505366 C22.201505,15.9505366 22.2455816,15.9034191 22.2458217,15.8278755 L22.2542771,13.5798549 C22.2549,13.4312988 22.1105342,13.0642293 22.0658849,13.028619 L19.4234303,11.2107653 L19.2791801,11.0579154 C19.0801851,10.7294616 18.8634827,10.4391582 18.0483306,9.38333694 C18.0215757,9.34867826 18.0215757,9.34867826 17.994811,9.31398378 C17.4456991,8.6020379 17.1411203,8.18950349 16.9021709,7.81655091 C16.2267953,6.76235114 15.9387631,6.57056944 15.1292799,6.50993379 L13.9443195,6.4999928 L2.87,6.55941463 C2.67391563,6.55941463 2.5,6.74609621 2.5,6.99307317 L2.5,15.1960976 C2.5,15.620581 2.80740901,15.9505366 3.16863636,15.9505366 L4.52475623,15.9505366 C4.90841946,15.0626894 5.79201871,14.4414732 6.82114517,14.4414732 C7.84963537,14.4414732 8.73307241,15.0626894 9.11669428,15.9505366 L16.1533946,15.9505366 Z M20,16.9499998 C20,16.1214772 19.3282664,15.4499998 18.5,15.4499998 C17.6714774,15.4499998 17,16.1214772 17,16.9499998 C17,17.7782662 17.6714774,18.4499998 18.5,18.4499998 C19.3282664,18.4499998 20,17.7782662 20,16.9499998 Z M8.30000019,16.9499998 C8.30000019,16.1214772 7.62826663,15.4499998 6.80000019,15.4499998 C5.97147756,15.4499998 5.30000019,16.1214772 5.30000019,16.9499998 C5.30000019,17.7782662 5.97147756,18.4499998 6.80000019,18.4499998 C7.62826663,18.4499998 8.30000019,17.7782662 8.30000019,16.9499998 Z" id="Combined-Shape" fill-rule="nonzero"></path>
            <path d="M15.9659305,8.19999981 C16.0827583,8.34935253 16.2083655,8.53143315 16.3522517,8.75381015 C16.5820773,9.10898264 16.8750264,9.50184995 17.4031715,10.1798546 C17.4289142,10.2128951 17.4289142,10.2128951 17.4546475,10.2459015 C17.7916557,10.6781022 18.0223136,10.9756054 18.1909824,11.1991951 C18.1294861,11.1997344 18.0637789,11.1999998 17.9936334,11.1999998 L13.4570983,11.1999998 C13.2045681,11.1999998 13,10.9939683 13,10.7396315 L13,8.6603681 C13,8.4060313 13.2045681,8.19999981 13.4570983,8.19999981 L15.9659305,8.19999981 Z" id="Combined-Shape"></path>
        </g>
    </g>
</svg>