<?xml version="1.0" encoding="UTF-8"?>
<svg width="24px" height="24px" viewBox="0 0 24 24" version="1.1" xmlns="http://www.w3.org/2000/svg" xmlns:xlink="http://www.w3.org/1999/xlink">
    <!-- Generator: Sketch 43.2 (39069) - http://www.bohemiancoding.com/sketch -->
    <title>van-icon1</title>
    <desc>Created with Sketch.</desc>
    <defs></defs>
    <g id="Icons" stroke="none" stroke-width="1" fill="none" fill-rule="evenodd">
        <g id="van-icon1" fill-rule="nonzero" fill="#000000">
            <g id="lorry" transform="translate(1.000000, 4.000000)">
                <polygon id="Shape" points="15.0955166 6.375 15.0955166 8.5 15.0955166 9.20833333 19.2124756 9.20833333 19.2124756 8.5 17.871076 6.375"></polygon>
                <path d="M21.8746901,7.42714062 L19.8239298,3.88547396 C19.6999493,3.67208854 19.4841949,3.54166667 19.2433099,3.54166667 L13.7231969,3.54166667 L13.7231969,0.708333333 C13.7231969,0.31715625 13.4468031,0 13.0678713,0 L0.716994152,0 C0.338062378,0 0,0.31715625 0,0.708333333 L0,14.1666667 C0,14.5578438 0.338062378,14.875 0.716994152,14.875 L3.55906823,14.875 C3.86595322,16.0934661 4.93117349,17 6.2062729,17 C7.48132943,17 8.54654971,16.0934661 8.85347758,14.875 L13.0679142,14.875 L14.5376686,14.875 C14.8445536,16.0934661 15.9097739,17 17.1848733,17 C18.4599298,17 19.5251501,16.0934661 19.8320351,14.875 L21.3018324,14.875 C21.6807641,14.875 21.9571579,14.5578438 21.9571579,14.1666667 L21.9571579,7.79166667 C21.957115,7.66336979 21.9386745,7.53746354 21.8746901,7.42714062 Z M1.37231969,1.41666667 L12.3508772,1.41666667 L12.3508772,4.25 L12.3508772,13.4583333 L8.8534347,13.4583333 C8.54654971,12.2398672 7.48132943,11.3333333 6.20623002,11.3333333 C4.93117349,11.3333333 3.86595322,12.2398672 3.55902534,13.4583333 L1.37231969,13.4583333 L1.37231969,1.41666667 L1.37231969,1.41666667 Z M6.2062729,15.5833333 C5.4494386,15.5833333 4.83395322,14.9479583 4.83395322,14.1666667 C4.83395322,13.385375 5.44939571,12.75 6.2062729,12.75 C6.96310721,12.75 7.57859259,13.385375 7.57859259,14.1666667 C7.57859259,14.9479583 6.96310721,15.5833333 6.2062729,15.5833333 Z M17.1848304,15.5833333 C16.4279961,15.5833333 15.8125107,14.9479583 15.8125107,14.1666667 C15.8125107,13.385375 16.4279961,12.75 17.1848304,12.75 C17.9416647,12.75 18.5571501,13.385375 18.5571501,14.1666667 C18.5571501,14.9479583 17.9416647,15.5833333 17.1848304,15.5833333 Z M20.5847953,13.4583333 L19.8319922,13.4583333 C19.5251072,12.2398672 18.4598869,11.3333333 17.1848304,11.3333333 C15.909731,11.3333333 14.8445536,12.2398672 14.5376257,13.4583333 L13.7231969,13.4583333 L13.7231969,4.95833333 L18.8546433,4.95833333 L20.5847953,7.98778646 L20.5847953,13.4583333 L20.5847953,13.4583333 Z" id="Shape"></path>
            </g>
        </g>
    </g>
</svg>